<svg xmlns="http://www.w3.org/2000/svg" width="398" height="297" fill="none"><path fill="#DAF1FA" d="M79.715 264.888a225 225 0 0 1-25.062-16.2C29.772 230.153-3.275 202.218.457 166.596c6.331-60.423 78.663-59.26 103.824-104.094 9.067-16.155 9.298-37.41 23.277-50.56 13.707-12.895 35.437-13.189 52.231-7.986 26.618 8.247 45.734 29.548 68.842 44.293 28.562 18.223 60.171 10.516 90.733 20.926 16.357 5.573 29.696 20.11 40.264 33.768 20.5 26.493 22.874 60.498 11.192 91.607-9.748 25.96-32.232 63.572-59.766 71.014-16.121 4.356-33.105 1.869-49.467 4.272-33.643 4.941-65.477 16.867-99.703 18.433-35.554 1.627-70.675-5.867-102.169-23.381"/><path fill="#fff" d="M118.708 81.84h7.291l13.629 5.66 5.633 6.747v10.012l-20.024.739-15.561-9.88-4.411-12.407"/><path fill="#42BAE0" d="M71.348 237.116a236 236 0 0 0-2.612 22.926l6.986 4.735 6.867 1.401 10.762-4.231 5.224-10.301-6.256-12.949z"/><path fill="#fff" d="M178.984 154.667c3.893 1.122 5.672 4.751 7.015 6.434 3.232 4.053 1.696 2.615 2.414 2.422.697-.187.053 3.814.534 1.894.621-2.488.469-.818 2.471-7.007.821-2.539 2.119-6.551 3.44-11.848 2.594-10.41 2.077-10.769 3.982-15.88.235-.629.82-5.144 1.054-6.944.369-2.845 1.219-4.32 1.076-6.82-.204-3.545 1.908-6.635 2.502-8.264.991-2.717 1.542-4.193 3.939-7.366 4.001-5.294 5.621-6.993 6.576-7.786 3.486-2.893 9.6-5.31 10.187-4.73.728.721-.495 3.6-1.948 6.547-.568 1.153-.745 2.398-.608 2.407 1.421.09 2.35-.68 3.869-1.648 2.784-1.776 5.358-3.417 8.168-3.297 1.084.046 2.494-.392 3.654 1.03 1.236 1.515 3.644.804 4.728 2.575 1.446 2.36.087 3.083 2.427 5.358 1.247 1.207 2.922 2.171 1.12 4.081-1.499 1.587-3.906 1.759-6.013 2.336-13.301 3.644-20.492 15.069-22.235 28.054-1.759 13.101-3.288 26.259-6.128 39.184-2.354 10.714-5.862 21.873-16.77 26.691-7.168 3.131-17.55-4.271-23.102-7.943-3.129-2.07-7.234-5.432-7.646-9.464-1.277-12.493-.336-14.961.107-15.969 1.221-2.775 3.162-4.469 5.16-6.286 3.295-2.995 6.658-4.674 8.915-5.6M72.784 209.464c-2.408-.29-3.203-1.39-4.317-1.4-8.588-.081-15.457-1.779-21.4-3.105-5.384-1.201-10.931-2.853-14.874-6.712-13.951-13.651-.789-38.06 6.3-52.053 1.907-3.763-.633-9.022 2.242-9.38 1.667-.208 2.72.981 6.521 3.815 5.54 4.128 5.237 3.041 10.09 6.767 5.335 4.096 8.019 6.206 8.86 9.229.632 2.273-2.325 2.77-3.418 6.898-.679 2.565-1.375 3.852-2.8 8.472-1.595 5.174-2.767 8.997-2.113 9.857.833 1.097 6.124 1.456 8.487 1.447 11.374-.044 11.816.335 12.842 1.088 3.378 2.48-1.973 6.113.414 17.643 1.139 5.495 2.351 4.079.459 6.521-1.046 1.349-4.24 1.282-7.293.913"/><path fill="#231F20" d="M132.006 84.99c1.36.99 5.346 4.072 6.965 6.022 2.097 2.525 2.608 5.55 3.338 7.364l2.265.247-.597-12.433-6.819-.075-4.607-1.125M189.339 165.227a.54.54 0 0 1-.409-.188c-3.367-3.925-6.183-8.013-8.366-12.151a.537.537 0 0 1 .951-.502c2.146 4.067 4.916 8.089 8.231 11.953a.537.537 0 0 1-.407.888"/><path fill="#231F20" d="M181.04 156.563c-1.777.991-2.675 1.653-4.69 3.161-2.588 1.937-4.032 5.176-5.828 7.468-1.121 1.431-5.04 7.078-5.949 10.646l-.688-16.115 15.803-13 3.189 7.067zM57.875 181.396l-.065-.003a.54.54 0 0 1-.47-.599c.436-3.627 2.25-10.381 4.754-15.755 2.235-4.794 3.488-5.192 4.938-5.654.679-.215 1.381-.438 2.31-1.285a.538.538 0 0 1 .724.795c-1.103 1.005-1.956 1.276-2.708 1.515-1.26.401-2.254.716-4.29 5.084-2.456 5.272-4.234 11.884-4.66 15.429a.537.537 0 0 1-.533.473"/><path fill="#231F20" d="M64.327 162.488c-.475 1.195-1.475 2.045-2.177 4.28-.725 2.311-2.334 7.293-2.795 7.316-.872.042-.81-4.135-1.957-6.893-1.776-4.271-3.219-8.348-10.554-13.742-2.626-1.932-4.582-4.01-9.027-6.665l2.106-3.595 27.797 17.545"/><path fill="#fff" d="M113.765 82.112c-3.499-.416-6.866-.706-8.273-2.957-1.661-2.659 6.244 6.725 8.273 2.957 8.645-16.06-.669-30.009 7-40.805 3.511-4.944 6.44-8.977 12.089-12.42 3.178-1.936 10.779-6.565 16.544-4.139 4.097 1.725 5.261 6.59 6.14 10.505 1.544 6.869 2.83 14.02 3.143 21.063.341 7.703-.474 17.587-5.826 23.617-2.994 3.375-7.425 5.096-11.698 6.157q-.333.084-.667.161c-4.877 1.141-6.309-.196-13.571-1.91"/><path fill="#231F20" d="M111.709 82.404q.318.082.601.076zm25.521 4.81c-1.81 0-3.372-.441-5.673-1.093-1.319-.374-2.815-.798-4.761-1.257a.538.538 0 0 1 .246-1.047c1.97.465 3.543.91 4.809 1.27 3.494.989 5.09 1.441 8.517.64q.33-.078.661-.16c5.345-1.326 8.975-3.23 11.425-5.991 5.291-5.963 6.014-15.928 5.689-23.237-.266-5.99-1.26-12.653-3.129-20.97-.804-3.577-1.905-8.477-5.824-10.126-5.513-2.321-12.9 2.18-16.055 4.103-5.67 3.454-8.573 7.54-11.932 12.27-3.595 5.063-3.35 10.775-3.065 17.39.301 6.991.642 14.915-3.893 23.348l-.013.023c-.339.624-.859 1.017-1.5 1.136-1.301.24-2.912-.628-4.521-1.82-1.35-.444-2.466-1.12-3.174-2.254-.218-.348-.515-.824-.114-1.169.412-.356.727-.085 1.769.807.512.439 1.228 1.053 2.005 1.639 1.337.415 2.958.605 4.627.802l.138.015c4.223-8.058 3.893-15.715 3.601-22.481-.28-6.529-.545-12.695 3.263-18.058 3.429-4.828 6.39-8.997 12.249-12.566 3.296-2.008 11.013-6.71 17.032-4.177 4.429 1.865 5.6 7.077 6.456 10.883 1.884 8.38 2.885 15.102 3.154 21.158.334 7.508-.429 17.765-5.959 23.998-2.601 2.93-6.405 4.94-11.971 6.321q-.337.084-.674.163c-1.313.307-2.386.44-3.383.44"/><path fill="#A97B50" d="M254.29 124.469h118.472v-7.55H254.29zM254.29 192.461h118.472v-7.55H254.29z"/><path fill="#DBE5B6" d="M351.835 65.556c2.655 4.102 5.28 8.285 6.933 12.907 1.787 5 1.329 10.07 1.329 15.31 0 5.557-.234 12.141-3.89 16.764-4.517 5.713-13.15 5.982-19.813 5.787-5.322-.156-10.547-1.693-14.558-5.315-3.481-3.143-4.36-7.406-4.456-11.916-.042-1.94-.097-3.881-.107-5.822-.019-3.698.093-7.418.73-11.07 1.114-6.388 4.33-11.266 7.702-16.645"/><path fill="#F8BE5A" d="M349.199 70.659c2.121 3.277 4.218 6.62 5.54 10.315 1.428 3.995 1.062 8.046 1.062 12.234 0 4.44-.186 9.701-3.109 13.396-3.609 4.565-10.507 4.78-15.833 4.625-4.252-.125-8.427-1.353-11.633-4.248-2.782-2.511-3.484-5.918-3.561-9.522-.033-1.55-.078-3.101-.086-4.652-.015-2.956.075-5.928.584-8.846.89-5.105 3.46-9.003 6.154-13.302"/><path fill="#231F20" d="M352.489 65.557h-27.557a3.9 3.9 0 0 1-3.898-3.898V59.27a3.9 3.9 0 0 1 3.898-3.898h27.557a3.9 3.9 0 0 1 3.898 3.898v2.388a3.9 3.9 0 0 1-3.898 3.898"/><path fill="#DBE5B6" d="M294.522 144.517c2.106 3.255 4.189 6.573 5.501 10.242 1.419 3.967 1.055 7.989 1.055 12.149 0 4.408-.186 9.633-3.087 13.301-3.585 4.533-10.434 4.747-15.722 4.592-4.222-.123-8.368-1.343-11.551-4.217-2.762-2.494-3.46-5.877-3.536-9.456-.033-1.539-.078-3.079-.085-4.619-.015-2.935.074-5.887.579-8.784.885-5.069 3.436-8.94 6.112-13.208"/><path fill="#F8BE5A" d="M292.43 148.565c1.684 2.601 3.348 5.253 4.397 8.185 1.133 3.17.842 6.384.842 9.708 0 3.523-.148 7.698-2.467 10.63-2.864 3.621-8.338 3.792-12.563 3.669-3.375-.099-6.688-1.074-9.231-3.37-2.207-1.993-2.765-4.696-2.826-7.556-.026-1.231-.061-2.461-.068-3.692-.011-2.345.059-4.704.463-7.018.707-4.052 2.745-7.145 4.884-10.556"/><path fill="#231F20" d="M295.041 144.516h-21.866a3.093 3.093 0 0 1-3.093-3.093v-1.895a3.093 3.093 0 0 1 3.093-3.093h21.866a3.093 3.093 0 0 1 3.093 3.093v1.895a3.093 3.093 0 0 1-3.093 3.093"/><path fill="#D1D3D4" d="M314.114 143.196v34.436a6.676 6.676 0 0 0 6.677 6.677h35.5a7.016 7.016 0 0 0 7.016-7.016v-35.048"/><path fill="#231F20" d="M363.884 144.146h-50.347a3.937 3.937 0 0 1-3.938-3.938v-2.58a3.94 3.94 0 0 1 3.938-3.938h50.347a3.94 3.94 0 0 1 3.938 3.938v2.58a3.937 3.937 0 0 1-3.938 3.938"/><mask id="a" width="45" height="25" x="316" y="157" maskUnits="userSpaceOnUse" style="mask-type:luminance"><path fill="#fff" d="M316.254 157.01h43.845v24.062h-43.845z"/></mask><g mask="url(#a)"><path fill="#FFF200" d="M316.252 160.633c1.577-1.338 4.069-3.01 7.248-3.209 4.082-.254 4.854 2.195 9.507 2.733 2.277.264 1.857-.35 13.426-2.495 3.268-.606 4.387-.758 5.942-.594 1.492.158 2.973.562 6.06.832.701.061 1.278.097 1.663.119v16.615c0 1.67-.737 3.255-2.015 4.331l-.263.222a8.02 8.02 0 0 1-5.161 1.883h-27.874a7.93 7.93 0 0 1-5.019-1.791l-.351-.288a7.61 7.61 0 0 1-2.79-5.668z" opacity=".8"/></g><path fill="#D1D3D4" d="M261.733 71.448v37.331c0 3.998 2.72 7.239 6.074 7.239H300.1c3.525 0 6.383-3.406 6.383-7.607V70.418"/><path fill="#231F20" d="M306.652 72.479h-45.088a3.94 3.94 0 0 1-3.939-3.939v-3.459a3.94 3.94 0 0 1 3.939-3.938h45.088a3.94 3.94 0 0 1 3.938 3.938v3.46a3.94 3.94 0 0 1-3.938 3.938"/><mask id="b" width="41" height="27" x="263" y="86" maskUnits="userSpaceOnUse" style="mask-type:luminance"><path fill="#fff" d="M263.676 86.42h39.885v26.09h-39.885z"/></mask><g mask="url(#b)"><path fill="#FFF200" d="M263.678 90.35c1.435-1.45 3.702-3.263 6.594-3.478 3.713-.276 4.414 2.38 8.647 2.963 2.072.285 1.69-.38 12.215-2.705 2.972-.657 3.989-.822 5.404-.644 1.358.17 2.704.609 5.513.902.637.066 1.162.105 1.512.128v18.012c0 1.811-.67 3.53-1.832 4.696l-.24.24c-1.314 1.319-2.977 2.042-4.695 2.042H271.44c-1.664 0-3.277-.686-4.565-1.942l-.32-.312c-1.553-1.514-2.478-3.755-2.537-6.146z" opacity=".8"/></g><path fill="#231F20" d="M152.502 14.228c-4.058-2.185-8.932-3.443-12.73-4.23-5.486-1.136-11.146-1.907-16.683-1.05-6.961 1.077-13.136 5.858-17.078 11.589-5.008 7.279-10.114 14.477-15.249 21.721-4.103 5.79-7.604 12.965-7.1 20.25.547 7.88 13.092 12.438 7.127 21.345-2.195 3.277-6.46 8.303-7.766 12.026 2.81.03 6.59-2.504 9.35-2.92 9.707-1.465 15.249.458 18.495-3.9 4.995-6.709 9.112-19.661 8.011-27.894-.694-5.194-2.889-8.894-1.161-14.655.815-2.718 2.14-4.686 3.773-7.11 3.682-5.47 9.956-9.454 11.364-10.512 3.113-2.341 3.032-2.988 7.913-3.917 2.342-.446 6.783-1.269 10.375.825 2.716 1.582 4.078 2.88 4.882 2.576 1.302-.493 3.994 2.904 4.359-2.124.414-5.722-3.188-9.492-7.882-12.02"/><path fill="#fff" d="M119.053 64.51c-.812.043-5.521.21-8.839-3.318-.741-.788-3.477-3.696-2.667-7.4.509-2.327 2.241-4.164 4.121-4.98 3.437-1.493 8.151.085 11.109 4.198"/><path fill="#231F20" d="M153.123 20.434c1.791.724 5.009 2.36 7.255 5.804 3.178 4.872 2.461 10.37 2.322 11.319-.332 2.255-.969 3.073-1.161 6.094-.172 2.714.241 3.67.29 5.803.121 5.18-2.062 10.126-2.902 10.013-.936-.128-1.005-8.761-1.682-15.722-.615-6.324-1.77-12.976-8.62-23.456M152.47 85.004c-.799 2.041-1.173 2.402-1.524 3.483-.764 2.35-.247 4.487.218 6.312 1.288 5.057 3.835 7.409 6.02 9.461.741.696-1.531 1.501-5.647-.69-2.225-1.185-4.592-3.272-5.515-3.45-2.061-.397-2.372-3.173-3.01-4.023-.948-1.263-1.44-2.401-1.57-2.531-1.876-1.894-1.308-5.13-.435-6.385.67-.964 4.372-2.657 6.152-3.144 5.618-1.534 6.281-6.61 7.104-5.926.444.368-.81 4.382-1.793 6.893"/><path fill="#1B9853" d="m166.534 223.777-2.184-59.519a.51.51 0 0 1 .2-.424c3.201-2.469 6.608-4.649 9.993-6.853 1.941-1.265 3.746-2.725 5.678-4.003 1.031-.683 4.761-1.954 4.889-3.281.03-.313-.069-.621-.168-.918-6.191-18.722-17.826-45.202-39.446-50.458-5.774-1.404-12.229-1.233-18.24-2.304-3.472-.618-6.638-1.691-9.753-3.342-2.14-1.134-4.934-3.93-7.419-3.897-.656.008-2.017-.093-2.666 0-19.195 2.75-18.637 4.226-27.734 7.192-19.268 6.284-31.865 21.667-43.943 37.074-1.113 1.419-2.29 3.052-2.063 4.842.513 4.061 11.56 9.543 14.611 12.129 5.957 5.05 11.745 10.563 19.045 13.635.19.08.315.267.315.473v14.724l2.54 35.813 1.102 9.086a1 1 0 0 1 .003.062v12.055c0 .208 2.059 1.522 2.251 1.601l10.745 1.957c.08.033 1.575-.713 1.662-.724h6.367c.226-.027.184-.624 2.23-2.49l-.218-2.989c.016-.096 2.33-2.098 2.395-2.17l2.938-.442c.065-.074 2.844-.517 2.938-.544l3.218-.607c.023-.006 3.288-1.131 3.312-1.135l11.457.483.039-.004 29.88-1.74 4.282-.062"/><path fill="#fff" d="m90.491 164.435 1.886-3.084 2.016-2.612.705-5.514-.399-8.234 3.374-1.487 7.944-1.27h10.411l8.343 1.487 3.496 1.234.169 8.379 1.487 7.183 1.596 3.192-20.514 1.197-12.896 2.967z"/><path fill="#F2BC3C" d="m88.223 185.693.98-16.34 2.484-5.147c.145-.3 1.438-.443 1.748-.557 1.836-.681 2.986-1.024 4.964-.546l3.468.84c.319.076.64.154.968.174 1.586.095 3.118-.724 4.609-1.15 1.616-.46 3.222-.952 4.907-1.074 2.188-.157 4.145 1.437 6.325 1.223 2.362-.231 3.365-3.211 6.004-2.77 2.342.392 5.067-1.526 6.504.468.517.718 3.457 4.82 3.457 5.694v4.885l-3.552 3.791-6.414 1.009-3.911-.2-1.028-1.597-2.271-1.816 6.9-2.351 2.17-2.352-1.175-2.223-7.812-.271-5.391.634-6.291 7.923-2.669 3.44-2.417 4.897z"/><path fill="#231F20" d="M68.466 184.131a.54.54 0 0 1-.536-.519l-.819-23.193a.538.538 0 0 1 1.075-.038l.818 23.194a.536.536 0 0 1-.518.555zM188.413 169.768a.537.537 0 0 1-.512-.701l6.48-20.398 3.934-18.101.931-4.488c-.054-5.522 2.716-16.302 3.655-18.658 1.498-3.754 3.967-6.416 6.581-9.233q.59-.633 1.178-1.277c1.69-1.854 3.738-3.984 6.113-5.715.06-.043 6.116-4.185 7.926-2.742.937.75.271 2.294.053 2.803-1.707 3.963-3.843 8.394-7.623 10.804a.536.536 0 1 1-.577-.907c3.521-2.246 5.569-6.506 7.211-10.323.442-1.026.375-1.449.265-1.536-.726-.578-4.884 1.504-6.622 2.77-2.297 1.675-4.298 3.756-5.951 5.57q-.593.649-1.184 1.284c-2.545 2.742-4.948 5.332-6.371 8.901-.895 2.244-3.65 13.028-3.578 18.304a.6.6 0 0 1-.012.116l-.943 4.55-3.941 18.131q-.005.025-.013.049l-6.487 20.422a.54.54 0 0 1-.513.375M166.534 224.314a.537.537 0 0 1-.537-.514l-3.488-81.693a.54.54 0 0 1 .514-.561c.317-.022.547.218.56.515l3.488 81.693a.54.54 0 0 1-.514.56zM111.829 142.771c-10.252 0-16.794 1.841-16.794 3.109s6.542 3.109 16.794 3.109 16.795-1.841 16.795-3.109-6.543-3.109-16.795-3.109m0 7.293c-7.183 0-17.87-1.114-17.87-4.184s10.687-4.184 17.87-4.184 17.87 1.114 17.87 4.184-10.687 4.184-17.87 4.184"/><path fill="#231F20" d="M111.829 153.168c-7.183 0-17.87-1.115-17.87-4.184a.538.538 0 1 1 1.076 0c0 1.268 6.542 3.108 16.794 3.108s16.795-1.84 16.795-3.108a.537.537 0 1 1 1.075 0c0 3.069-10.687 4.184-17.87 4.184"/><path fill="#231F20" d="M87.775 186.232h-.006a.536.536 0 0 1-.531-.543c.127-11.346 1.65-20.451 3.882-23.197q.095-.117.22-.265c.724-.862 2.231-2.655 2.68-5.25.233-1.349.279-3.432.309-4.811.017-.768-.135-2.869-.247-4.402-.065-.897-.117-1.606-.122-1.872a.537.537 0 0 1 .525-.549h.013c.291 0 .53.233.537.525.005.24.059.971.12 1.818.12 1.641.268 3.684.25 4.504-.032 1.411-.079 3.542-.325 4.97-.499 2.882-2.132 4.825-2.917 5.759q-.117.14-.208.251c-1.71 2.105-3.5 9.888-3.642 22.531a.54.54 0 0 1-.538.531M134.27 170.129a.537.537 0 0 1-.537-.538c0-3.96-.462-5.227-1.433-6.421q-.09-.11-.209-.251c-.785-.934-2.418-2.877-2.916-5.759-.247-1.426-.294-3.559-.325-4.97-.011-.515-.056-1.578-.102-2.69-.066-1.575-.134-3.202-.125-3.632.007-.297.272-.522.55-.525a.54.54 0 0 1 .526.55c-.009.394.061 2.077.123 3.562.047 1.12.092 2.192.104 2.711.03 1.38.076 3.465.308 4.81.449 2.596 1.956 4.39 2.681 5.251l.219.264c1.11 1.367 1.674 2.84 1.674 7.1a.54.54 0 0 1-.538.538"/><path fill="#fff" d="M104.906 174.828c2.253-1.847.497-3.494 3.295-6.68 1.355-1.543 2.439-2.749 4.3-3.493.951-.381 2.166-.409 4.569-.538 3.19-.171 2.983.166 4.501-.134 1.16-.23 2.162-.602 3.696-.404 1.046.136 1.379.412 1.545.605.804.934.087 2.685 0 2.889-1.179 2.786-3.08 3.517-4.033 3.697-1.072.203-.051 1.85-2.438 1.178l-3.537.844c.269.289 1.626-.338 2.214-.007.411.23.71-.571 4.21-1.317.525-.112 6.021-3.426 8.29-6.267.812-1.016 1.07 1.67 1.74.555.112-.186.227 4.666.632 4.569.789-.187 1.523.578.98 2.554-.628 2.291-1.021 5.298-1.276 5.912-2.442 5.89-6.273 1.869-8.327 2.392"/><path fill="#fff" d="M135.005 176.708c.207.598 1.167.419 1.251 1.497 0 0 .144 1.203.177 1.687.255 3.687-2.544 8.128-8.123 11.216l.691-.428 1.92-1.725c.549-.493 2.079-2.38 2.844-2.31.255.022.483.16.7.294.595.365 1.201.741 1.636 1.286 1.596 1.995-.757 4.258-2.172 5.536-.471.425-.831.812-1.458.711-.511-.082-1.185-.483-1.605-.785-.421-.302-.932-.572-1.434-.448l4.087-1.739c.106-.045.221-.09.329-.058.162.047.232.239.241.407.024.444-.078 1.822-.4 2.129-2.763 2.642-5.126 2.997-8.145 4.103-17.953 6.581-36.968 8.326-55.84 10.362-1.53-2.304-3.492-8.067-2.906-17.233.24-3.763-1.73-5.202-.874-7.374l11.568-.634 8.435.261 12.364-2.536 4.659-2.942 1.956-3.158"/><path fill="#231F20" d="M120.693 181.143a.539.539 0 0 1-.132-1.059c2.833-.721 9.662-2.972 11.864-8.285 1.065-2.567 1.219-4.701.414-5.706-.424-.531-.942-.886-1.204-.822-.172.041-.315.28-.392.408-.439.732-1.028 1.297-1.597 1.843-.391.375-.76.729-1.075 1.123-2.364 2.959-7.943 4.222-8.572 4.356-2.483.53-4.494.417-5.817-.325a.538.538 0 0 1 .526-.938c.623.349 2.11.841 5.067.212.59-.126 5.825-1.308 7.956-3.976.359-.449.772-.845 1.17-1.228.543-.52 1.055-1.012 1.41-1.603.145-.242.462-.772 1.076-.918 1.014-.24 1.94.757 2.291 1.196 1.465 1.829.466 5.039-.26 6.79-2.388 5.761-9.601 8.154-12.592 8.915a.6.6 0 0 1-.133.017"/><path fill="#231F20" d="M120.761 188.266a.538.538 0 0 1-.152-1.054c5.92-1.75 10.827-5.146 12.5-8.651 1.409-2.953 1.228-5.614 1.226-5.641a9.7 9.7 0 0 0-.51-2.417.538.538 0 0 1 1.016-.354c.303.874.494 1.779.565 2.688.01.119.213 2.961-1.327 6.186-1.826 3.827-6.871 7.359-13.166 9.22a.5.5 0 0 1-.152.023"/><path fill="#231F20" d="M122.978 193.977a.538.538 0 0 1-.158-1.052c3.392-1.044 8.042-3.205 10.93-7.577.982-1.484 2.808-4.248 1.893-6.704a4.4 4.4 0 0 0-1.019-1.556.537.537 0 0 1 .761-.759 5.4 5.4 0 0 1 1.266 1.94c1.106 2.968-.917 6.028-2.004 7.673-3.064 4.636-7.951 6.916-11.511 8.011a.6.6 0 0 1-.158.024M217.975 112.58a.54.54 0 0 1-.469-.8c.946-1.69 1.993-4.392 1.611-7.663a12.1 12.1 0 0 0-1.02-3.624.538.538 0 1 1 .978-.447 13.1 13.1 0 0 1 1.109 3.946c.416 3.557-.716 6.484-1.739 8.313a.54.54 0 0 1-.47.275M71.416 184.041c-6.287 0-11.865-.697-18.438-3.245a.538.538 0 0 1 .389-1.003c9.05 3.508 16.228 3.428 26.148 2.905l.837-.044c7.61-.395 17.083-.887 23.185-5.889 1.007-.825 1.517-2.182 2.107-3.755.624-1.659 1.33-3.539 2.803-5.216 1.334-1.519 2.486-2.831 4.505-3.638.941-.377 2.053-.435 4.07-.541l.669-.035c1.567-.084 2.323-.048 2.875-.022.553.027.831.041 1.552-.103q.347-.07.683-.15c.92-.21 1.871-.428 3.185-.258 1.204.155 1.64.501 1.884.787.962 1.118.31 2.922.088 3.449-1.285 3.035-6.465 4.887-9.397 4.057a.537.537 0 1 1 .294-1.034c2.453.697 7.064-.966 8.113-3.442.255-.605.562-1.777.087-2.329-.17-.199-.577-.341-1.206-.423-1.125-.142-1.941.043-2.807.241-.236.054-.473.109-.716.157-.85.168-1.232.15-1.811.122-.53-.025-1.255-.06-2.766.021l-.67.036c-1.904.1-2.952.155-3.728.464-1.693.678-2.659 1.715-4.095 3.35-1.344 1.529-1.985 3.236-2.605 4.886-.619 1.645-1.203 3.2-2.433 4.208-6.375 5.225-16.043 5.727-23.81 6.131l-.838.043c-2.911.154-5.592.27-8.154.27M222.266 97.193a.539.539 0 0 1-.171-1.047c2.75-.921 5.29-1.962 7.549-3.094l.113-.056c.925-.465 2.071-1.045 3.633-.98 1.467.06 4.264 1.177 4.94 2.441.211.395.211.801.002 1.144a.538.538 0 0 1-.918-.562c-.005-.404-2.267-1.875-4.068-1.948-1.281-.05-2.25.435-3.107.866l-.114.056c-2.304 1.155-4.892 2.216-7.688 3.152a.5.5 0 0 1-.171.028M229.769 103.947a.537.537 0 0 1-.259-1.008c2.115-1.163 4.458-2.17 7.375-3.168.272-.093.548-.196.828-.3 1.347-.5 2.871-1.067 4.42-.746 1.522.316 2.147 1.514 2.699 2.571l.1.191a.536.536 0 1 1-.951.501l-.102-.195c-.526-1.007-.941-1.803-1.964-2.015-1.244-.257-2.559.23-3.828.701q-.433.164-.854.31c-2.856.977-5.145 1.959-7.205 3.092a.54.54 0 0 1-.259.066"/><path fill="#231F20" d="M225.622 101.109a.539.539 0 0 1-.258-1.01c3.371-1.836 6.736-3.364 10.001-4.54 1.874-.675 3.839-1.247 5.464-.207.653.417 1.811 1.44 2.018 2.635.1.577-.038 1.127-.398 1.593a.537.537 0 1 1-.85-.659.9.9 0 0 0 .189-.75c-.132-.762-1.013-1.579-1.537-1.913-1.216-.777-2.833-.296-4.521.312-3.215 1.158-6.528 2.663-9.85 4.474a.55.55 0 0 1-.258.065M83.984 240.123a32.686 32.686 0 0 1-12.565-2.51.538.538 0 0 1 .413-.993 31.595 31.595 0 0 0 18.834 1.713.536.536 0 1 1 .227 1.05c-2.278.493-4.592.74-6.91.74"/><path fill="#E7E8E9" d="M215.084 233.206c0 4.404-27.447 7.974-61.304 7.974s-61.304-3.57-61.304-7.974 27.447-7.973 61.304-7.973 61.304 3.569 61.304 7.973"/><path fill="#E7E8E9" d="M232.566 289.432c-.28-3.89-1.456-13.889-8.082-23.254a39 39 0 0 0-7.118-7.663 37 37 0 0 0-3.32-2.419c-.517-.334-3.649-2.417-3.904-2.203 3.961-2.633 5.867-6.229 6.316-10.961a18.85 18.85 0 0 0-1.691-9.724H92.307a18.85 18.85 0 0 0-1.692 9.724c.45 4.732 2.356 8.328 6.317 10.961-.256-.214-3.388 1.869-3.905 2.203a37 37 0 0 0-3.32 2.419 39 39 0 0 0-7.118 7.663c-6.626 9.365-7.802 19.364-8.081 23.254"/><path fill="#D1D3D4" d="M220.777 292.044c.03-.995.054-2.46 0-4.228-.246-8.164-1.847-13.494-2.959-16.489-1.998-5.379-3.492-6.109-4.228-6.341-1.339-.426-2.391.083-5.074.845-2.632.748-5.368 1.065-8.032 1.691-3.649.858-24.949 4.573-56.231 2.96a310 310 0 0 1-39.742-4.651l-7.61-.423a61 61 0 0 0-5.496 9.725 61.3 61.3 0 0 0-4.651 15.645c-.409 2.785 31.746 4.4 34.761 4.588 33.211 2.066 66.214.074 99.262-3.322"/><path fill="#9EC143" d="M99.633 234.874c-.132-1.344 7.275-3.75 14.586-4.44 10.632-1.002 12.967 2.39 20.928 1.058 7.795-1.306 6.539-4.724 16.488-8.245 12.846-4.546 24.288-2.156 28.538-1.268 3.793.792 6.796 1.449 10.147 3.593 3.537 2.264 4.527 4.308 8.245 6.553 4.751 2.871 8.879 2.376 8.878 3.171-.001 1.267-10.158 2.212-11.416 2.326-17.735 1.606-30.863 1.691-30.863 1.691-24.789.161-27.866.582-37.839 0-7.39-.431-1.085-.393-21.774-2.959-3.283-.408-5.843-.707-5.918-1.48"/><path fill="#E7E8E9" d="M361.203 227.9c0 4.403-27.446 7.973-61.304 7.973-33.857 0-61.304-3.57-61.304-7.973s27.447-7.974 61.304-7.974 61.304 3.57 61.304 7.974"/><path fill="#E7E8E9" d="M378.685 284.123c-.28-3.889-1.456-13.889-8.082-23.253a39 39 0 0 0-7.118-7.663 37 37 0 0 0-3.32-2.42c-.517-.333-3.648-2.416-3.904-2.203 3.961-2.633 5.867-6.229 6.316-10.961.44-4.62-.964-8.171-1.691-9.724H238.425c-.726 1.553-2.13 5.104-1.691 9.724.45 4.732 2.356 8.328 6.317 10.961-.256-.213-3.388 1.87-3.905 2.203a37 37 0 0 0-3.319 2.42 39 39 0 0 0-7.118 7.663c-6.627 9.364-7.803 19.364-8.082 23.253"/><path fill="#D1D3D4" d="M366.897 286.737c.03-.995.053-2.459 0-4.228-.247-8.164-1.848-13.494-2.96-16.488-1.998-5.38-3.492-6.109-4.228-6.342-1.339-.425-2.391.083-5.073.846-2.632.747-5.369 1.064-8.033 1.691-3.649.858-24.949 4.572-56.23 2.959a310 310 0 0 1-39.743-4.65l-7.609-.424a61.1 61.1 0 0 0-10.148 25.37c-.408 2.786 31.746 4.401 34.761 4.588 33.211 2.066 66.214.074 99.263-3.322"/><path fill="#2BB673" d="M245.751 229.565c-.131-1.344 7.276-3.75 14.587-4.439 10.632-1.003 12.967 2.39 20.927 1.057 7.796-1.305 6.54-4.724 16.489-8.245 12.846-4.546 24.288-2.156 28.538-1.267 3.792.791 6.797 1.449 10.147 3.593 3.536 2.264 4.528 4.308 8.244 6.553 4.751 2.87 8.879 2.375 8.879 3.171-.001 1.266-10.158 2.211-11.415 2.325-17.735 1.606-30.864 1.692-30.864 1.692-24.789.161-27.866.581-37.839 0-7.391-.432-1.085-.393-21.774-2.96-3.283-.408-5.843-.707-5.919-1.48"/><path fill="#231F20" d="M301.34 251.668a274.7 274.7 0 0 1-48.182-4.265.537.537 0 1 1 .189-1.058 273.4 273.4 0 0 0 51.9 4.22 273.7 273.7 0 0 0 48.525-5.064.538.538 0 0 1 .207 1.055 275 275 0 0 1-52.639 5.112M150.318 257.402a274.7 274.7 0 0 1-48.178-4.264.537.537 0 0 1-.435-.623.533.533 0 0 1 .624-.435 273.5 273.5 0 0 0 51.9 4.219 273.6 273.6 0 0 0 48.525-5.063.538.538 0 0 1 .207 1.055 274.7 274.7 0 0 1-52.643 5.111M137.624 67.91h-.138a.538.538 0 1 1 0-1.075h.069c1.338.01 2.694 0 3.778-.693 1.483-.946 1.041-2.977.652-4.77-.065-.3-.128-.588-.178-.858-.228-1.217-.276-1.353-.307-1.443-.054-.158-.091-.262-.325-1.627a.537.537 0 0 1 1.06-.182c.219 1.278.251 1.37.282 1.458.051.148.103.301.346 1.596.049.261.11.54.173.828.418 1.922.99 4.555-1.123 5.905-1.329.848-2.897.861-4.289.861M137.162 75.96a9.34 9.34 0 0 1-4.641-1.228 9.5 9.5 0 0 1-3.67-3.832.539.539 0 0 1 .956-.493c.42.813 1.4 2.336 3.248 3.392a8.3 8.3 0 0 0 4.411 1.08c.314-.023.546.222.557.518a.54.54 0 0 1-.517.558 9 9 0 0 1-.344.006M134.977 54.074a.923.923 0 1 1-1.845 0 .923.923 0 0 1 1.845 0M153.855 54.074a.923.923 0 1 1-1.845 0 .923.923 0 0 1 1.845 0"/><path fill="#231F20" d="M130.93 48.855a5.225 5.225 0 0 0-5.219 5.219 5.225 5.225 0 0 0 5.219 5.218 5.223 5.223 0 0 0 5.218-5.218 5.224 5.224 0 0 0-5.218-5.22m0 11.512a6.3 6.3 0 0 1-6.294-6.293 6.3 6.3 0 0 1 6.294-6.295 6.3 6.3 0 0 1 6.294 6.294 6.3 6.3 0 0 1-6.294 6.294M151.09 48.855a5.224 5.224 0 0 0-5.219 5.219 5.224 5.224 0 0 0 5.219 5.218 5.224 5.224 0 0 0 5.218-5.218 5.224 5.224 0 0 0-5.218-5.22m0 11.512a6.3 6.3 0 0 1-6.294-6.293 6.3 6.3 0 0 1 6.294-6.295 6.3 6.3 0 0 1 6.294 6.294 6.3 6.3 0 0 1-6.294 6.294"/><path fill="#231F20" d="M125.173 54.611a.53.53 0 0 1-.31-.099l-10.085-7.136a.538.538 0 0 1 .621-.878l10.085 7.137a.537.537 0 0 1-.311.976M145.333 54.611h-8.647a.538.538 0 1 1 0-1.075h8.647a.538.538 0 0 1 0 1.075M136.091 46.383a.53.53 0 0 1-.262-.069c-1.217-.681-3.188-1.454-5.648-1.27a10 10 0 0 0-4.147 1.269.537.537 0 1 1-.53-.936 11.1 11.1 0 0 1 4.597-1.404c2.727-.207 4.908.649 6.253 1.403a.537.537 0 0 1-.263 1.007M153.854 45.699a.53.53 0 0 1-.262-.068c-1.217-.682-3.185-1.455-5.648-1.27a10 10 0 0 0-4.147 1.268.537.537 0 1 1-.529-.936c1.41-.798 3-1.284 4.596-1.404 2.727-.207 4.908.65 6.253 1.403a.536.536 0 0 1-.263 1.007M71.294 236.744a.54.54 0 0 1-.537-.507l-1.59-27.763a.54.54 0 0 1 .506-.567.53.53 0 0 1 .568.506l1.59 27.763a.54.54 0 0 1-.506.567zM231.565 107.639a.537.537 0 0 1-.301-.984 36.5 36.5 0 0 1 6.657-3.542 34.6 34.6 0 0 1 6.444-1.898.537.537 0 1 1 .2 1.056 33.4 33.4 0 0 0-6.242 1.84 35.4 35.4 0 0 0-6.459 3.436.53.53 0 0 1-.299.092"/></svg>