<svg xmlns="http://www.w3.org/2000/svg" width="18" height="18" fill="none"><path fill="#fff" d="m9 7-4 4 1.4 1.4L8 10.8V15h2v-4.2l1.6 1.6L13 11 9 7ZM2 5v11h14V5H2Zm0 13c-.55 0-1.02-.196-1.413-.587A1.926 1.926 0 0 1 0 16V3.525c0-.233.037-.458.113-.675a1.92 1.92 0 0 1 .337-.6L1.7.725a1.81 1.81 0 0 1 .688-.537A2.03 2.03 0 0 1 3.25 0h11.5c.3 0 .588.063.863.188.274.124.504.304.687.537l1.25 1.525c.15.183.262.383.337.6.075.217.113.442.113.675V16c0 .55-.196 1.02-.587 1.413A1.926 1.926 0 0 1 16 18H2Zm.4-15h13.2l-.85-1H3.25L2.4 3Z"/></svg>