<svg xmlns="http://www.w3.org/2000/svg" width="24" height="24" fill="none" viewBox="0 0 24 24"><path fill="#228524" d="M22.217 13.891c-1.347 1.551-2.434 2.757-2.521 2.8a281 281 0 0 1-2.522-2.8c-1.217-1.379-1.783-2.111-1.783-3.016 0-.99.783-1.81 1.957-1.81.435 0 .782.13 1.13.345-.956-2.972-3.695-5.083-6.87-5.083-3.956 0-7.086 3.188-7.086 7.195s3.13 7.195 7.087 7.195c1.521 0 2.652-.388 3.304-.819l1.391 1.766C15.174 20.526 13.217 21 11.61 21 6.304 21 2 16.778 2 11.522 2 6.265 6.304 2 11.609 2c4.565 0 8.435 3.145 9.304 7.367.348-.215.696-.344 1.13-.344 1.174 0 1.957.818 1.957 1.81 0 .947-.565 1.68-1.783 3.058"/></svg>