<svg xmlns="http://www.w3.org/2000/svg" viewBox="0 0 134 141.13"><g><path d="M127.38 39.44c-3.66 0-6.62 2.97-6.62 6.62v50.16c-23.33-11.33-46.66-11.39-70-.2V46.07c0-3.66-2.97-6.62-6.62-6.62s-6.62 2.97-6.62 6.62v75.8c0 10.62 8.64 19.27 19.27 19.27h57.96c10.62 0 19.27-8.64 19.27-19.27V46.06c0-3.66-2.96-6.62-6.62-6.62Z"/><path d="M50.35 12.6C59.36 13.68 67.4 18.2 73 25.33c4.18 5.32 6.62 11.62 7.14 18.21-2.87-3.28-7.96-3.56-11.1-.36-2.79 2.82-2.67 7.41-.14 10.46l14.8 17.9h.03c1.52 1.84 4.37 1.84 5.89 0l15.14-18.22c2.76-3.3 2.21-8.28-1.29-10.89-3.28-2.47-7.99-1.61-10.6 1.55l-.3.36c-.39-9.65-3.77-18.91-9.85-26.65C75.08 7.98 64.11 1.81 51.83.33 26.48-2.7 3.38 15.44.33 40.79a46.3 46.3 0 0 0 3.98 25.06 6.19 6.19 0 0 0 5.61 3.58c.87 0 1.76-.19 2.6-.58a6.183 6.183 0 0 0 3-8.21 34.03 34.03 0 0 1-2.92-18.38c2.23-18.59 19.17-31.89 37.75-29.66"/></g></svg>
