<svg xmlns="http://www.w3.org/2000/svg" width="16" height="16" viewBox="0 0 16 16"><path fill="currentColor" d="M5.333 14.667q-.55 0-.941-.392A1.28 1.28 0 0 1 4 13.333v-2.866q0-1.234.35-2.375t1.1-2.275q-.634-.15-1.042-.684A1.92 1.92 0 0 1 4 3.933v-.7q0-.8.692-1.341.69-.542 1.441-.459l5.934.584a.65.65 0 0 1 .441.225.67.67 0 0 1 .159.441v1.984a.64.64 0 0 1-.175.441.68.68 0 0 1-.425.225l-.6.067q.232.816.616 1.467.383.65.917.933l-.667 1.167a3.55 3.55 0 0 1-1.366-1.425 9 9 0 0 1-.767-2.025l-.733.066a7 7 0 0 0 .508 1.684q.375.849.758 1.533.3.534.45 1.117t.15 1.183v2.233q0 .55-.391.942a1.28 1.28 0 0 1-.942.392zm0-11.267v.533q0 .3.217.484a.65.65 0 0 0 .517.15l5.266-.5v-.8l-5.266-.5a.65.65 0 0 0-.517.15.6.6 0 0 0-.217.483m0 9.933H10V11.1a3.36 3.36 0 0 0-.433-1.65q-.518-.9-.9-1.858a9 9 0 0 1-.534-1.875l-1 .083-.433.567a6.83 6.83 0 0 0-1.367 4.1z"/></svg>