<svg xmlns="http://www.w3.org/2000/svg" width="16" height="16" viewBox="0 0 16 16"><path fill="currentColor" d="M10.667 14.667Q9 14.667 7.833 13.5q-1.166-1.167-1.166-2.833t1.166-2.834Q9 6.667 10.667 6.667q1.665 0 2.833 1.166Q14.667 9 14.667 10.667q0 1.665-1.167 2.833-1.167 1.167-2.833 1.167m0-1.334q1.099 0 1.883-.783.783-.783.783-1.883t-.783-1.884A2.57 2.57 0 0 0 10.667 8q-1.1 0-1.884.783A2.57 2.57 0 0 0 8 10.667q0 1.099.783 1.883.784.783 1.884.783m-8 0q-.55 0-.942-.391A1.28 1.28 0 0 1 1.333 12V6.933a1.5 1.5 0 0 1 .1-.533l1.334-3.067h-.1a.65.65 0 0 1-.475-.191A.65.65 0 0 1 2 2.667V2q0-.283.192-.475a.65.65 0 0 1 .475-.192h4.666q.285 0 .475.192A.65.65 0 0 1 8 2v.667a.65.65 0 0 1-.192.475.65.65 0 0 1-.475.191h-.1l1.1 2.534a8 8 0 0 0-.6.35 4 4 0 0 0-.533.416l-1.4-3.3H4.2l-1.533 3.6V12H5.5q.083.35.225.692.141.34.342.641zm8-7.333a1.6 1.6 0 0 1-1.184-.483A1.6 1.6 0 0 1 9 4.333q0-.699.483-1.183a1.6 1.6 0 0 1 1.184-.483zq0-.7.483-1.183a1.6 1.6 0 0 1 1.183-.484q.7 0 1.184.484Q14 5.3 14 6z"/></svg>