<svg xmlns="http://www.w3.org/2000/svg" width="24" height="24" fill="none"><path fill="#222" d="M4.311 18.393v-6.938a.92.92 0 0 1 .28-.675.92.92 0 0 1 .676-.28.92.92 0 0 1 .675.28.92.92 0 0 1 .28.675v6.938q0 .103.086.188t.188.086h11.897a.26.26 0 0 0 .188-.086.26.26 0 0 0 .086-.188V6.496a.26.26 0 0 0-.086-.188.26.26 0 0 0-.188-.086h-2.737a.92.92 0 0 1-.675-.28.92.92 0 0 1-.28-.675.92.92 0 0 1 .28-.675.92.92 0 0 1 .675-.28h2.737q.919 0 1.551.633.634.633.634 1.55v11.898a2.1 2.1 0 0 1-.634 1.552 2.1 2.1 0 0 1-1.55.633H6.495a2.1 2.1 0 0 1-1.552-.633 2.1 2.1 0 0 1-.633-1.552M3.29 7.287q0-1.796 1.2-3.042 1.198-1.247 2.903-1.247 1.103 0 2.013.547.91.546 1.436 1.457v-.757a.92.92 0 0 1 .28-.675.92.92 0 0 1 .676-.281.92.92 0 0 1 .675.28.92.92 0 0 1 .28.676v3.213q0 .453-.32.773t-.772.32H8.446a.92.92 0 0 1-.675-.281.92.92 0 0 1-.28-.675.92.92 0 0 1 .28-.675.92.92 0 0 1 .675-.28h1.11a2.34 2.34 0 0 0-.779-1.242 2.05 2.05 0 0 0-1.354-.489 2.07 2.07 0 0 0-1.581.694Q5.2 6.296 5.2 7.287a.92.92 0 0 1-.28.675.92.92 0 0 1-.676.28.92.92 0 0 1-.675-.28.92.92 0 0 1-.28-.675"/><path fill="#222" d="M7.556 14.644c4.917-1.51 9.777-.002 9.777-.002v2.884l-9.777.002z"/></svg>