<svg xmlns="http://www.w3.org/2000/svg" width="16" height="16" viewBox="0 0 16 16"><path fill="currentColor" d="M4.667 12.333 9.3 13.6l3.967-1.233a.76.76 0 0 0-.242-.259.62.62 0 0 0-.358-.108H9.3q-.45 0-.717-.033a2.6 2.6 0 0 1-.55-.134l-1.55-.516.367-1.3 1.35.45q.283.083.667.133.383.05 1.133.067a.63.63 0 0 0-.108-.35.5.5 0 0 0-.259-.217l-3.9-1.433H4.667zm-4 2.334V7.333h5.066q.117 0 .234.025.116.025.216.059l3.917 1.45q.55.2.892.7.34.5.341 1.1h1.334a2 2 0 0 1 1.416.55q.585.55.584 1.45v.666L9.333 15l-4.666-1.3v.967zM2 13.333h1.333V8.667H2zm8-5.566-1.333-.5A1.97 1.97 0 0 0 8.058 5.9a1.9 1.9 0 0 0-1.391-.567q-.55 0-1.009.275a2.06 2.06 0 0 0-.725.725H3.5a3.5 3.5 0 0 1 .942-1.466A3.16 3.16 0 0 1 6 4.067v-1.4H5V1.333h3.667q.566 0 1.066.184.501.183.917.5l-.95.95a2.6 2.6 0 0 0-.492-.217 1.8 1.8 0 0 0-.541-.083H7.333v1.4a3.27 3.27 0 0 1 1.909 1.141Q10 6.117 10 7.333zm2.667-1.1q-.55 0-.942-.392a1.28 1.28 0 0 1-.392-.942q0-.383.284-.95.282-.566 1.05-1.716.765 1.15 1.05 1.716.282.567.283.95 0 .55-.392.942a1.28 1.28 0 0 1-.941.392"/></svg>