<svg xmlns="http://www.w3.org/2000/svg" width="112" height="112" fill="none" viewBox="0 0 112 112"><path fill="#297f00" d="M97.767 104.417 84 90.65v10.383h-9.333V74.667h26.366V84h-10.5L104.3 97.767zM56 102.667q-9.683 0-18.2-3.675t-14.817-9.975T13.008 74.2 9.333 56q0-9.684 3.675-18.2t9.975-14.817T37.8 13.008 56 9.333t18.2 3.675 14.817 9.975T98.992 37.8q3.675 8.516 3.675 18.2a47 47 0 0 1-.234 4.667 48 48 0 0 1-.7 4.666h-9.566q.582-2.332.875-4.666a37.6 37.6 0 0 0 0-9.334 39 39 0 0 0-.875-4.666H76.3a62.41 62.41 0 0 1 0 18.667h-9.333q.35-2.334.525-4.667a62.4 62.4 0 0 0-.525-14H45.033a64 64 0 0 0-.525 4.666 62.4 62.4 0 0 0 .525 14h15.634v9.334H47.133a58.3 58.3 0 0 0 3.617 9.625A58 58 0 0 0 56 93.1q2.334 0 4.667-.292t4.666-.525v9.567a185 185 0 0 0-4.666.525 38 38 0 0 1-4.667.292M19.833 65.333H35.7a63 63 0 0 1-.525-4.666 62.4 62.4 0 0 1 .525-14H19.833a39 39 0 0 0-.875 4.666 37.6 37.6 0 0 0 0 9.334q.292 2.332.875 4.666m3.967-28h13.767a71 71 0 0 1 2.625-8.458 72 72 0 0 1 3.675-8.108q-6.417 2.1-11.55 6.358-5.134 4.259-8.517 10.208m20.067 53.9a72 72 0 0 1-3.675-8.108 71 71 0 0 1-2.625-8.458H23.8q3.382 5.95 8.517 10.208 5.133 4.258 11.55 6.358m3.266-53.9h17.734a58.3 58.3 0 0 0-3.617-9.625A58 58 0 0 0 56 18.9a58 58 0 0 0-5.25 8.808 58.3 58.3 0 0 0-3.617 9.625m27.3 0H88.2q-3.383-5.95-8.517-10.208t-11.55-6.358a72 72 0 0 1 3.675 8.108 71 71 0 0 1 2.625 8.458"/></svg>