<svg xmlns="http://www.w3.org/2000/svg" width="36" height="44" fill="none" viewBox="0 0 36 44">
  <path fill="#8cc63f" d="M0 12.324c0-1.944 1.567-3.52 3.5-3.52h28c1.933 0 3.5 1.576 3.5 3.52V40.48c0 1.944-1.567 3.52-3.5 3.52h-28C1.567 44 0 42.424 0 40.48zM3.646 0h27.708v6.599H3.646z"/>
  <path fill="#fff" d="M30.867 28.92c-1.705 1.98-3.08 3.52-3.19 3.575-.11-.11-1.485-1.65-3.19-3.574-1.54-1.76-2.254-2.695-2.254-3.85 0-1.265.99-2.31 2.474-2.31.55 0 .99.166 1.43.44-1.21-3.794-4.674-6.489-8.689-6.489-5.004 0-8.964 4.07-8.964 9.184 0 5.115 3.96 9.184 8.964 9.184 1.925 0 3.355-.495 4.18-1.045l1.76 2.255c-1.43 1.1-3.905 1.705-5.94 1.705-6.709 0-12.153-5.39-12.153-12.099s5.444-12.153 12.153-12.153c5.775 0 10.669 4.014 11.769 9.404.44-.275.88-.44 1.43-.44 1.484 0 2.474 1.044 2.474 2.31 0 1.21-.715 2.144-2.255 3.904"/>
</svg>
