<svg xmlns="http://www.w3.org/2000/svg" id="Layer_2" data-name="Layer 2" viewBox="0 0 133.17 149.4"><defs><style>.cls-1{fill:#fff}</style></defs><g id="Layer_1" data-name="Layer 1"><path d="M133.17 66.58C133.17 29.81 103.36 0 66.58 0S0 29.81 0 66.58c0 30.71 20.8 56.56 49.08 64.24l17.5 18.57 17.48-18.57c28.29-7.68 49.1-33.53 49.1-64.25Z" style="fill:#7e5aae"/><path d="M93.53 46.34c-2 0-3.62 1.62-3.62 3.62v27.42c-12.76-6.19-25.52-6.23-38.27-.11V49.96c0-2-1.62-3.62-3.62-3.62s-3.62 1.62-3.62 3.62v41.45c0 5.81 4.73 10.53 10.53 10.53h31.69c5.81 0 10.53-4.73 10.53-10.53V49.96c0-2-1.62-3.62-3.62-3.62" class="cls-1"/><path d="M51.41 31.67c4.92.59 9.32 3.06 12.39 6.96 2.28 2.91 3.62 6.35 3.91 9.96-1.57-1.79-4.35-1.94-6.07-.19-1.52 1.54-1.46 4.05-.08 5.72l8.09 9.79h.02a2.09 2.09 0 0 0 3.22 0l8.28-9.96a4.115 4.115 0 0 0-.71-5.95c-1.79-1.35-4.37-.88-5.8.85l-.16.2c-.21-5.28-2.06-10.34-5.38-14.57-4.18-5.32-10.18-8.69-16.89-9.5-13.86-1.66-26.49 8.26-28.16 22.12-.56 4.7.19 9.43 2.18 13.7a3.38 3.38 0 0 0 3.06 1.96c.48 0 .96-.1 1.42-.32 1.69-.79 2.43-2.8 1.64-4.49a18.56 18.56 0 0 1-1.59-10.05C32 37.74 41.26 30.46 51.42 31.68Z" class="cls-1"/></g></svg>